<svg xmlns="http://www.w3.org/2000/svg" viewBox="0 0 294.81 151.86"><path style="fill:#fff" d="M294.81,108.38c-13.56,21.82-28.75,40.78-56.41,43.33-17.71,1.63-29.39-10.35-26.44-28,2-11.92,6-23.59,10.06-35,5.82-16.41,12.87-32.39,18.6-48.82,1.41-4-.25-9.13-.5-13.74-4.77,1-10.66.61-14.12,3.32-18.7,14.63-30.83,34.73-42.08,55.05-10,18-18.5,36.83-27,55.61-2.68,6-5.63,8.22-12.19,7.88-11.52-.6-23.1-.17-35.77-.17,6.52-19.76,12.85-38.4,18.81-57.15,5.45-17.15,10.82-34.33,15.48-51.71.92-3.45-.42-9.06-2.88-11.34-1.72-1.59-8.46-.55-10.66,1.63C118.47,40.42,105.82,51,97.63,64.31c-15,24.39-27.49,50.38-40.52,76-2.68,5.26-5,8-11.42,7.7-12.16-.6-24.37-.17-37.57-.17,7.51-23.39,14.76-46,22-68.6C34.39,65.93,39,52.75,42.73,39.34c1-3.45-.51-7.6-.86-11.43-3.78,1.44-8,2.25-11.21,4.52a19.84,19.84,0,0,0-6.92,8.81C19.54,52.9,11.09,53.86,0,51.25,9.21,31.58,19.8,13.41,40.68,4.42,52.19-.55,64.62-2.88,75.4,5.9S84.88,27.09,82.57,39c-1.52,7.88-4.17,15.54-5,24,4.93-6.63,9.5-13.56,14.86-19.81,8.69-10.13,17.3-20.44,27-29.51A47,47,0,0,1,159.7,1.08c17.64,2.56,27.75,16.37,24.06,33.69-2,9.56-5.11,18.9-6.5,29,6-8.08,11.67-16.46,18.11-24.17,7.61-9.12,15.36-18.26,24.06-26.31A47.83,47.83,0,0,1,251.14.58C274.33-.12,290.06,18.9,283,41c-6.88,21.54-15.72,42.46-23.68,63.65-1.22,3.26-2.79,6.47-3.39,9.85-.41,2.28-.08,6.35,1.12,6.88,2.13.94,5.56.51,7.76-.66,3-1.59,5.54-4.21,7.93-6.72C280.36,106,281.69,105.57,294.81,108.38Z"/></svg>